<svg id="Capa_1" enable-background="new 0 0 512 512" height="512" viewBox="0 0 512 512" width="512" xmlns="http://www.w3.org/2000/svg"><path d="m512 327.071h-68.857v-45.131l-34.429-20.678v-127.976h34.429v-98.857h-98.857v98.857h34.429v127.977l-34.429 20.678v45.131h-38.857v-45.132l-34.429-20.677v-127.977h34.429v-98.857h-98.857v98.857h34.428v127.977l-34.429 20.678v45.131h-38.857v-45.132l-34.429-20.678v-127.976h34.429v-98.857h-98.857v98.857h34.429v127.977l-34.429 20.677v45.131h-68.857v98.857h68.857v2.214c0 27.255 22.174 49.429 49.429 49.429s49.429-22.174 49.429-49.429v-2.214h38.857v2.214c0 27.255 22.174 49.429 49.429 49.429s49.429-22.174 49.429-49.429v-2.214h38.857v2.214c0 27.255 22.174 49.429 49.429 49.429s49.429-22.174 49.429-49.429v-2.214h68.855zm-137.714-262.642h38.857v38.857h-38.857zm-137.715 0h38.857v38.857h-38.857zm-137.714 0h38.857v38.857h-38.857zm-68.857 331.5v-38.857h38.857v38.857zm107.714 32.214c0 10.713-8.716 19.429-19.429 19.429s-19.429-8.716-19.429-19.429v-129.226l19.429-11.669 19.429 11.669zm30-32.214v-38.857h38.857v38.857zm107.715 32.214c0 10.713-8.716 19.429-19.429 19.429s-19.429-8.716-19.429-19.429v-129.226l19.429-11.669 19.429 11.669zm30-32.214v-38.857h38.857v38.857zm107.714 32.214c0 10.713-8.716 19.429-19.429 19.429s-19.429-8.716-19.429-19.429v-129.226l19.429-11.669 19.429 11.669zm68.857-32.214h-38.857v-38.857h38.857z"/></svg>