<svg id="Icons" height="512" viewBox="0 0 74 74" width="512" xmlns="http://www.w3.org/2000/svg"><path d="m37 72a35 35 0 1 1 35-35 35.04 35.04 0 0 1 -35 35zm0-68a33 33 0 1 0 33 33 33.038 33.038 0 0 0 -33-33z"/><path d="m37 61a24 24 0 1 1 24-24 24.028 24.028 0 0 1 -24 24zm0-46a22 22 0 1 0 22 22 22.025 22.025 0 0 0 -22-22z"/><path d="m37 54.947a17.947 17.947 0 1 1 17.947-17.947 17.967 17.967 0 0 1 -17.947 17.947zm0-33.894a15.947 15.947 0 1 0 15.947 15.947 15.965 15.965 0 0 0 -15.947-15.947z"/><path d="m37 33.158a1 1 0 0 1 -1-1v-12.1a1 1 0 1 1 2 0v12.1a1 1 0 0 1 -1 1z"/><path d="m37 54.947a1 1 0 0 1 -1-1v-12.105a1 1 0 0 1 2 0v12.105a1 1 0 0 1 -1 1z"/><path d="m53.947 38h-12.105a1 1 0 0 1 0-2h12.105a1 1 0 0 1 0 2z"/><path d="m32.158 38h-12.1a1 1 0 1 1 0-2h12.1a1 1 0 0 1 0 2z"/><path d="m40.424 34.576a1 1 0 0 1 -.707-1.707l8.559-8.559a1 1 0 1 1 1.414 1.414l-8.559 8.559a.993.993 0 0 1 -.707.293z"/><path d="m25.017 49.983a1 1 0 0 1 -.707-1.707l8.559-8.559a1 1 0 0 1 1.414 1.414l-8.559 8.559a1 1 0 0 1 -.707.293z"/><path d="m48.983 49.983a1 1 0 0 1 -.707-.293l-8.559-8.559a1 1 0 0 1 1.414-1.414l8.559 8.559a1 1 0 0 1 -.707 1.707z"/><path d="m33.576 34.576a.993.993 0 0 1 -.707-.293l-8.559-8.559a1 1 0 0 1 1.414-1.414l8.559 8.559a1 1 0 0 1 -.707 1.707z"/><path d="m37 42.842a5.842 5.842 0 1 1 5.842-5.842 5.848 5.848 0 0 1 -5.842 5.842zm0-9.684a3.842 3.842 0 1 0 3.842 3.842 3.846 3.846 0 0 0 -3.842-3.842z"/><path d="m38 8a1 1 0 0 1 -.969-.757l-1-4a1 1 0 0 1 1.94-.486l1 4a1 1 0 0 1 -.728 1.213.968.968 0 0 1 -.243.03z"/><path d="m29.509 8.934a1 1 0 0 1 -.863-.494l-2.087-3.556a1 1 0 1 1 1.724-1.013l2.087 3.556a1 1 0 0 1 -.861 1.507z"/><path d="m21.622 12.222a.99.99 0 0 1 -.684-.272l-3-2.824a1 1 0 1 1 1.362-1.457l3 2.824a1 1 0 0 1 -.685 1.729z"/><path d="m14.981 17.6a1 1 0 0 1 -.451-.108l-3.677-1.864a1 1 0 1 1 .9-1.784l3.678 1.864a1 1 0 0 1 -.454 1.892z"/><path d="m10.127 24.628a.962.962 0 0 1 -.184-.017l-4.053-.752a1 1 0 1 1 .365-1.966l4.054.752a1 1 0 0 1 -.182 1.983z"/><path d="m3.345 33.161a1 1 0 0 1 -.1-1.994l4.1-.421a1 1 0 0 1 .2 1.989l-4.1.421a.871.871 0 0 1 -.1.005z"/><path d="m3.346 42.839a1 1 0 0 1 -.378-1.926l3.817-1.559a1 1 0 0 1 .756 1.852l-3.817 1.559a1.009 1.009 0 0 1 -.378.074z"/><path d="m6.073 52.124a1 1 0 0 1 -.625-1.782l3.224-2.571a1 1 0 1 1 1.248 1.563l-3.22 2.572a.994.994 0 0 1 -.627.218z"/><path d="m11.3 60.265a.987.987 0 0 1 -.574-.182 1 1 0 0 1 -.244-1.392l2.368-3.375a1 1 0 0 1 1.637 1.148l-2.368 3.375a1 1 0 0 1 -.819.426z"/><path d="m18.618 66.6a1 1 0 0 1 -.947-1.321l1.321-3.906a1 1 0 0 1 1.895.641l-1.322 3.906a1 1 0 0 1 -.947.68z"/><path d="m27.422 70.623h-.042a1 1 0 0 1 -.958-1.04l.168-4.12a1 1 0 0 1 2 .081l-.168 4.12a1 1 0 0 1 -1 .959z"/><path d="m37 72a1 1 0 0 1 -.969-.757l-1-4a1 1 0 0 1 1.94-.486l1 4a1 1 0 0 1 -.728 1.213.968.968 0 0 1 -.243.03z"/><path d="m46.58 70.623a1 1 0 0 1 -.863-.494l-2.087-3.556a1 1 0 1 1 1.724-1.013l2.087 3.556a1 1 0 0 1 -.861 1.507z"/><path d="m55.382 66.6a1 1 0 0 1 -.685-.272l-3-2.824a1 1 0 1 1 1.369-1.457l3 2.824a1 1 0 0 1 -.684 1.729z"/><path d="m62.694 60.265a1 1 0 0 1 -.451-.108l-3.678-1.864a1 1 0 0 1 .905-1.784l3.677 1.864a1 1 0 0 1 -.453 1.892z"/><path d="m67.929 52.124a.962.962 0 0 1 -.184-.017l-4.054-.752a1 1 0 1 1 .366-1.966l4.053.752a1 1 0 0 1 -.181 1.983z"/><path d="m66.552 43.259a1 1 0 0 1 -.1-1.994l4.1-.421a1 1 0 0 1 .2 1.989l-4.1.421a.871.871 0 0 1 -.1.005z"/><path d="m66.837 34.721a1 1 0 0 1 -.378-1.927l3.817-1.559a1 1 0 0 1 .756 1.852l-3.817 1.559a1.01 1.01 0 0 1 -.378.075z"/><path d="m64.705 26.447a1 1 0 0 1 -.625-1.781l3.22-2.572a1 1 0 1 1 1.248 1.564l-3.224 2.571a1 1 0 0 1 -.619.218z"/><path d="m60.326 19.11a1 1 0 0 1 -.817-1.574l2.368-3.375a1 1 0 0 1 1.637 1.148l-2.368 3.375a1 1 0 0 1 -.82.426z"/><path d="m54.061 13.3a.975.975 0 0 1 -.321-.054 1 1 0 0 1 -.627-1.267l1.322-3.906a1 1 0 1 1 1.894.641l-1.321 3.906a1 1 0 0 1 -.947.68z"/><path d="m46.412 9.5h-.042a1 1 0 0 1 -.958-1.039l.168-4.12a1 1 0 1 1 2 .081l-.168 4.12a1 1 0 0 1 -1 .958z"/></svg>