<svg width="188" height="215" viewBox="0 0 188 215" fill="none" xmlns="http://www.w3.org/2000/svg">
<path d="M159.5 31V189.5H28.5M159.5 31V13H15V189.5H28.5M159.5 31H172.5V203.5H28.5V189.5" stroke="black" stroke-width="10" stroke-linecap="round"/>
<path d="M159.5 31V189.5H28.5M159.5 31V13H15V189.5H28.5M159.5 31H172.5V203.5H28.5V189.5" stroke="black" stroke-width="10" stroke-linecap="round"/>
<path d="M41.096 128.832V98.928L37.352 98.496V95.616H63.128L63.656 102.816L60.68 102.864L59.384 99.12L47.048 98.736V112.08L56.072 111.84L57.224 108.384H59.96V118.944H56.888L56.12 115.344L47.048 115.2V128.688L54.056 129.216V132H37.304V129.504L41.096 128.832ZM71.0547 128.736V98.928L66.7828 98.496V95.616H81.0868V98.496L77.0068 98.928V128.736L81.3748 129.504V132H66.7348V129.504L71.0547 128.736ZM89.4241 128.784V99.216L85.8241 98.832V95.616H99.6001V98.832L95.4721 99.264L95.4241 128.928L106.416 128.256L109.68 122.64L112.32 123.792L110.736 132H85.7281V129.504L89.4241 128.784ZM119.003 128.736V98.928L115.355 98.496V95.616H140.507L141.179 102.768H137.819L136.331 98.928L124.955 98.544V111.696L132.683 111.456L133.595 107.856H136.667V118.416H133.595L132.683 114.816L124.955 114.672V129.024L137.531 128.496L140.123 123.744L143.291 124.416L142.187 132H115.259V129.504L119.003 128.736Z" fill="black"/>
</svg>
