<svg width="188" height="215" viewBox="0 0 188 215" fill="none" xmlns="http://www.w3.org/2000/svg">
<path d="M159.5 31V189.5H28.5M159.5 31V13H15V189.5H28.5M159.5 31H172.5V203.5H28.5V189.5" stroke="black" stroke-width="10" stroke-linecap="round"/>
<path d="M159.5 31V189.5H28.5M159.5 31V13H15V189.5H28.5M159.5 31H172.5V203.5H28.5V189.5" stroke="black" stroke-width="10" stroke-linecap="round"/>
<path d="M45.712 128.736L47.776 99.264L43.312 98.832V95.616H55.984L63.376 118.608L64.336 122.544L65.392 118.56L72.448 95.616H84.112V98.832L79.744 99.264L82.288 128.736L86.176 129.552V132H72.784V129.552L76.672 128.736L74.944 108.288L74.8 99.648L73.888 103.296L64.576 132.384H62.464L53.92 107.664C53.152 105.456 52.272 102.752 51.28 99.552L51.136 106.992L50.128 128.688L54.544 129.504V132H41.68V129.504L45.712 128.736ZM93.1585 128.736V99.264L89.2705 98.736V95.616H96.1825C97.0465 95.616 98.0705 95.568 99.2545 95.472C101.367 95.344 103.095 95.28 104.439 95.28C108.599 95.28 111.783 96.096 113.991 97.728C116.231 99.36 117.351 102.128 117.351 106.032C117.351 108.464 116.743 110.592 115.527 112.416C114.311 114.208 112.679 115.584 110.631 116.544C108.583 117.504 106.343 117.984 103.911 117.984H101.511C100.327 117.984 99.5105 118.016 99.0625 118.08V128.736L105.111 129.504V132H88.8385V129.504L93.1585 128.736ZM99.0625 114.768C100.087 114.928 101.607 115.008 103.623 115.008C105.991 115.008 107.879 114.304 109.287 112.896C110.695 111.488 111.399 109.184 111.399 105.984C111.399 103.424 110.647 101.488 109.143 100.176C107.671 98.864 105.591 98.24 102.903 98.304C101.079 98.432 99.7985 98.576 99.0625 98.736V114.768ZM129.904 102.24C132.496 102.24 134.672 102.896 136.432 104.208C138.192 105.52 139.072 107.456 139.072 110.016C139.072 111.2 138.704 112.432 137.968 113.712C137.232 114.96 136.272 116.064 135.088 117.024C133.936 117.984 132.72 118.64 131.44 118.992C133.488 118.96 135.248 119.296 136.72 120C138.192 120.704 139.312 121.68 140.08 122.928C140.848 124.144 141.232 125.536 141.232 127.104C141.232 129.376 140.528 131.472 139.12 133.392C137.712 135.344 135.776 136.896 133.312 138.048C130.848 139.2 128.128 139.776 125.152 139.776C123.648 139.776 122.208 139.648 120.832 139.392V136.224C121.824 136.448 122.896 136.56 124.048 136.56C126.064 136.56 127.92 136.176 129.616 135.408C131.344 134.672 132.704 133.632 133.696 132.288C134.688 130.944 135.184 129.44 135.184 127.776C135.184 125.568 134.608 123.904 133.456 122.784C132.336 121.664 130.496 121.056 127.936 120.96C127.168 121.152 126.592 121.28 126.208 121.344L123.904 121.824V118.272C126.432 117.888 128.608 117.024 130.432 115.68C132.256 114.336 133.168 112.768 133.168 110.976C133.168 109.28 132.688 108.032 131.728 107.232C130.8 106.4 129.616 105.984 128.176 105.984C126.64 105.984 125.344 106.192 124.288 106.608C123.264 107.024 122.128 107.648 120.88 108.48L119.344 106.08C120.464 105.024 121.952 104.128 123.808 103.392C125.664 102.624 127.696 102.24 129.904 102.24Z" fill="black"/>
</svg>
