<svg width="188" height="215" viewBox="0 0 188 215" fill="none" xmlns="http://www.w3.org/2000/svg">
<path d="M159.5 31V189.5H28.5M159.5 31V13H15V189.5H28.5M159.5 31H172.5V203.5H28.5V189.5" stroke="black" stroke-width="10" stroke-linecap="round"/>
<path d="M159.5 31V189.5H28.5M159.5 31V13H15V189.5H28.5M159.5 31H172.5V203.5H28.5V189.5" stroke="black" stroke-width="10" stroke-linecap="round"/>
<path d="M45.712 128.736L47.776 99.264L43.312 98.832V95.616H55.984L63.376 118.608L64.336 122.544L65.392 118.56L72.448 95.616H84.112V98.832L79.744 99.264L82.288 128.736L86.176 129.552V132H72.784V129.552L76.672 128.736L74.944 108.288L74.8 99.648L73.888 103.296L64.576 132.384H62.464L53.92 107.664C53.152 105.456 52.272 102.752 51.28 99.552L51.136 106.992L50.128 128.688L54.544 129.504V132H41.68V129.504L45.712 128.736ZM93.1585 128.736V99.264L89.2705 98.736V95.616H96.1825C97.0465 95.616 98.0705 95.568 99.2545 95.472C101.367 95.344 103.095 95.28 104.439 95.28C108.599 95.28 111.783 96.096 113.991 97.728C116.231 99.36 117.351 102.128 117.351 106.032C117.351 108.464 116.743 110.592 115.527 112.416C114.311 114.208 112.679 115.584 110.631 116.544C108.583 117.504 106.343 117.984 103.911 117.984H101.511C100.327 117.984 99.5105 118.016 99.0625 118.08V128.736L105.111 129.504V132H88.8385V129.504L93.1585 128.736ZM99.0625 114.768C100.087 114.928 101.607 115.008 103.623 115.008C105.991 115.008 107.879 114.304 109.287 112.896C110.695 111.488 111.399 109.184 111.399 105.984C111.399 103.424 110.647 101.488 109.143 100.176C107.671 98.864 105.591 98.24 102.903 98.304C101.079 98.432 99.7985 98.576 99.0625 98.736V114.768ZM122.56 124.656C125.536 119.44 127.856 115.296 129.52 112.224C131.216 109.12 132.88 105.76 134.512 102.144H136.288L139.984 104.784L126.4 126.528L124.72 128.88L136.288 128.016L136.432 117.792L141.424 116.784V127.584L146.08 127.248V132H141.424V140.832H136.048L136.192 132H120.64L119.776 129.504L122.56 124.656Z" fill="black"/>
</svg>
