<svg width="446" height="22" viewBox="0 0 446 22" fill="none" xmlns="http://www.w3.org/2000/svg">
<path d="M75.3056 8.54857C76.212 7.17011 77.15 5.81303 78.0564 4.43457C78.9628 3.05611 80.0273 1.59217 80.9969 0.160286L81.0918 0H109.243C113.027 0 118.729 0.128229 122.207 1.7204C124.41 2.78897 125.432 4.43457 123.914 6.64651C122.576 8.59131 120.12 9.85222 117.959 10.6216C114.093 11.8948 110.07 12.6142 106.007 12.7587L109.897 16.83L114.26 21.3714L114.776 21.9057H101.581L101.486 21.8095C100.126 20.3028 98.7667 18.8389 97.4388 17.3108L93.5707 12.887H83.4948C82.4409 14.3509 81.4502 15.8042 80.4489 17.2788L77.4029 21.7988L77.3081 21.9484H66.1572L66.505 21.4462L69.5615 16.9262C70.4679 15.5691 71.3743 14.2227 72.3123 12.887H65.6302L65.9464 12.3954C66.7685 11.1345 67.6327 9.89497 68.4759 8.64474L68.5707 8.54857H75.3056ZM11.4671 8.54857C12.3735 7.17011 13.3115 5.81303 14.2179 4.43457C15.1243 3.05611 16.1783 1.59217 17.1585 0.160286L17.2534 0H17.422C29.4161 0 41.4102 0 53.4042 0C57.072 0 63.0585 0.651828 64.3654 4.87268C64.5985 5.93212 64.6043 7.02997 64.3825 8.09189C64.1606 9.15381 63.7163 10.155 63.0796 11.0277C60.8004 14.2696 57.7223 16.8488 54.1525 18.5076C49.4608 20.7832 44.324 21.9592 39.1231 21.9484C27.0552 21.9484 14.9768 21.9484 2.90893 21.9484H2.30818L2.64544 21.4355C3.69941 19.9395 4.67959 18.4222 5.70193 16.9262C6.72428 15.4302 7.51475 14.2227 8.43169 12.887H0L0.305649 12.3954C1.05396 11.1238 1.93929 9.88428 2.793 8.65542L2.88785 8.54857H11.4671ZM158.958 17.9734C159.443 19.245 160.012 20.5166 160.476 21.7775L160.561 21.9805H172.449L172.249 21.521C170.647 17.984 169.087 14.4257 167.527 10.8353L162.848 0.1496L162.774 0H139.123L139.028 0.138914C138.217 1.30366 137.405 2.47908 136.625 3.67588L136.298 4.17811H148.472C143.398 6.9279 138.336 9.68838 133.284 12.4595C127.867 15.4302 122.418 18.3687 116.99 21.3714L115.936 21.9805H128.415H128.488C130.807 20.6555 133.129 19.334 135.455 18.0161L158.958 17.9734ZM312.236 4.38114H295.657L296.005 3.87891C296.848 2.62868 297.702 1.38914 298.556 0.138914L298.651 0H342.917L342.538 0.502228C341.694 1.74177 340.851 2.98131 340.04 4.23154L339.945 4.38114H323.429C321.476 7.26628 319.523 10.1479 317.569 13.0259C315.588 15.9538 313.596 18.8816 311.625 21.8095L311.53 21.9484H300.284L300.632 21.4355C302.613 18.5183 304.584 15.5798 306.587 12.6519C308.477 9.91634 310.36 7.15942 312.236 4.38114ZM341.125 12.9297C340.198 14.2654 339.302 15.6118 338.395 16.9582L335.36 21.489L335.033 21.9912H378.752L378.847 21.8523C379.5 20.8906 380.143 19.9288 380.786 18.9564C381.429 17.984 382.082 17.0223 382.767 16.0713L383.126 15.5691H371.922L371.827 15.6973C371.384 16.3278 370.963 16.9796 370.541 17.6207H349.146C350.193 16.0464 351.247 14.4863 352.308 12.9404H366.104L366.199 12.8015C367 11.5406 367.854 10.3117 368.697 9.08285L369.045 8.56994H355.269C356.218 7.19504 357.163 5.81303 358.105 4.42388H379.426C379.068 4.94748 378.71 5.49245 378.372 5.99468L378.056 6.48623H389.228L389.323 6.34731L391.262 3.46217C391.916 2.47908 392.601 1.52806 393.286 0.566343L393.644 0.0534285H349.915L349.82 0.192343C348.851 1.61354 347.85 3.01337 346.901 4.46663C345.952 5.91988 345.025 7.13805 344.118 8.54857H337.384L337.289 8.68748C336.435 9.92702 335.592 11.1666 334.77 12.4275L334.454 12.919H341.125V12.9297ZM427.36 12.8015L431.26 16.8727C432.736 18.4008 434.211 19.9395 435.697 21.4462L436.245 21.9912H423.029L422.934 21.895C421.553 20.3776 420.162 18.8923 418.813 17.3643L414.924 12.9404H404.89C403.836 14.3936 402.866 15.8469 401.876 17.3322L398.851 21.8523L398.756 21.9912H387.563L387.9 21.489L390.925 16.9582C391.831 15.6011 392.759 14.2654 393.697 12.9297H386.962L387.299 12.4275L389.85 8.69817L389.966 8.54857H396.658C397.565 7.17011 398.524 5.82371 399.43 4.44525C400.337 3.0668 401.37 1.60286 402.35 0.170971L402.445 0.0213714H430.596C434.369 0.0213714 440.082 0.160286 443.518 1.74177C445.71 2.74623 446.816 4.44525 445.299 6.66788C443.971 8.602 441.452 9.87359 439.323 10.643C435.46 11.9152 431.441 12.6346 427.381 12.7801L427.36 12.8015ZM218.781 12.9404H210.213L210.539 12.4382C211.361 11.2093 212.173 9.96977 213.016 8.75159L213.111 8.54857H232.926L232.578 9.06148C231.735 10.269 230.923 11.5085 230.111 12.7374C229.057 14.244 228.004 15.7294 227.065 17.2574C226.127 18.7855 225.021 20.3028 224.041 21.7988L223.946 21.9484H223.777C211.541 21.9484 199.294 21.9484 187.057 21.9484C183.389 21.9271 177.066 21.3714 175.875 17.0971C175.232 14.8638 176.307 12.4809 177.571 10.6857C180.093 7.48068 183.35 4.94945 187.057 3.31257C191.594 1.14466 196.544 0.0138098 201.56 0C213.68 0 225.801 0 237.942 0H238.543L238.195 0.502228C237.552 1.47463 236.878 2.40428 236.256 3.39806C235.634 4.39183 234.96 5.30011 234.359 6.2832L234.264 6.4328H223.092L223.419 5.93057C223.756 5.41765 224.093 4.862 224.473 4.38114H202.993C197.797 4.38114 190.904 6.64651 187.7 11.017C187.28 11.5011 186.968 12.0718 186.786 12.6897C186.604 13.3077 186.556 13.9582 186.646 14.5967C187.3 17.1078 191.431 17.5246 193.528 17.578H215.662C216.716 16.0072 217.77 14.4364 218.824 12.887L218.781 12.9404ZM244.941 17.6207C245.288 17.0971 245.626 16.5522 245.995 16.0713L246.364 15.5691H235.139L235.044 15.708C234.391 16.6697 233.716 17.6207 233.094 18.6038C232.472 19.5869 231.808 20.5272 231.197 21.4996L230.881 21.9912H261.382C266.613 22.0866 271.829 21.4062 276.865 19.9716C279.384 19.2022 283.041 17.7169 284.591 15.4622C285.065 14.8257 285.294 14.0352 285.234 13.2396C284.77 8.96531 275.274 8.602 272.133 8.602H256.998C256.018 8.602 251.602 8.46308 251.496 7.11668C251.433 6.34731 253.025 5.62068 253.604 5.39628C255.724 4.6845 257.949 4.35185 260.181 4.4132H278.667L277.613 5.96263L277.297 6.46485H288.48L288.575 6.31525C289.186 5.33217 289.861 4.40251 290.472 3.43011C291.083 2.45771 291.758 1.50668 292.411 0.534285L292.738 0.0320571H263.596C258.444 -0.0537308 253.307 0.597383 248.334 1.96617C245.858 2.71417 242.169 4.10331 240.609 6.31525C240.151 6.89923 239.919 7.63245 239.955 8.3776C240.377 12.6519 250.822 12.9511 253.942 12.9511H268.181C269.298 12.9511 273.45 13.1541 273.545 14.6928C273.608 15.5584 272.154 16.2957 271.501 16.5628C269.321 17.3348 267.021 17.6969 264.713 17.6314L244.941 17.6207ZM89.3654 4.38114C88.4168 5.74891 87.4788 7.12737 86.5408 8.54857H104.342C106.45 8.54857 111.72 8.18525 112.943 6.31525C114.165 4.44525 108.368 4.4132 107.599 4.4132L89.3654 4.38114ZM25.4848 4.38114C23.9249 6.64651 22.3229 8.89051 20.8052 11.1666C19.2875 13.4426 17.8963 15.4408 16.4523 17.578H37.6897C41.0611 17.5312 44.3828 16.7476 47.4283 15.2806C49.6334 14.2736 51.5329 12.6872 52.93 10.6857C53.2756 10.2009 53.5171 9.648 53.6387 9.06267C53.7604 8.47733 53.7595 7.87262 53.6361 7.28765C52.8983 4.77651 49.0725 4.39183 46.9224 4.39183L25.4848 4.38114ZM142.664 13.7739L148.335 10.5682L154.753 6.93502L156.113 10.4079C156.555 11.4765 156.988 12.6626 157.43 13.7846L142.664 13.7739ZM407.883 8.54857H425.695C427.803 8.54857 433.073 8.19594 434.327 6.32594C435.581 4.45594 429.711 4.38114 428.962 4.38114H410.666C409.728 5.77028 408.779 7.14874 407.883 8.54857Z" fill="white"/>
</svg>
