<svg width="120" height="80" viewBox="0 0 120 80" fill="none" xmlns="http://www.w3.org/2000/svg">
<path fill-rule="evenodd" clip-rule="evenodd" d="M40.7603 38.15L43.4095 28.9764C40.9638 31.5328 39.1181 34.666 38.0988 38.15H40.7603ZM37.6513 48.9126L38.1643 47.1377L37.3445 46.9443C37.4192 47.6098 37.5194 48.2674 37.6513 48.9126ZM47.5089 38.15H52.2491L59.1471 22.0608C53.1528 22.175 47.7265 24.6498 43.7695 28.6001L47.5089 38.15ZM67.0196 65.5368C74.9515 62.7328 80.8421 55.5834 81.8104 46.9658L75.0161 48.5632L67.0196 65.5368ZM52.7076 50.5632L49.1871 57.801L45.6451 48.8999L43.6421 48.4282L41.1937 57.1667C44.6878 62.1961 50.184 65.728 56.5207 66.5983L55.5146 51.2238L52.7076 50.5632ZM60.6988 44.1588L64.6144 40.241L63.395 22.3882C63.1032 22.3364 62.2056 22.1821 61.315 22.1153C60.3155 22.0419 59.3282 22.0577 59.2755 22.0581L60.6988 44.1588ZM65.3396 50.8375L61.1924 51.812L62.1493 66.6599C63.5994 66.4929 65.0082 66.1896 66.3612 65.7588L65.3396 50.8375ZM80.5862 36.7372L79.9207 38.15H81.0478C80.9071 37.6726 80.7568 37.2001 80.5862 36.7372ZM70.0144 38.15L69.1049 24.1887C72.304 25.7025 75.0865 27.9531 77.2377 30.721L73.7383 38.15H70.0144Z" fill="#294386"/>
<path fill-rule="evenodd" clip-rule="evenodd" d="M75.3577 47.8369L79.628 38.771L115.541 38.5626H115.561L75.3577 47.8369ZM89.7937 46.7406L86.17 47.9134L86.1071 48.3415C85.8126 50.3696 85.2803 52.3705 84.5256 54.2879L84.3568 54.7187L87.0052 57.2813C86.2737 58.8351 85.4091 60.3301 84.4271 61.7376L80.8891 60.7274L80.5999 61.0905C79.3216 62.7033 77.8526 64.171 76.2359 65.4545L75.872 65.742L76.8825 69.2747C75.472 70.2584 73.9748 71.123 72.4223 71.8532L69.8614 69.207L69.4298 69.3789C67.5084 70.1376 65.5023 70.6694 63.4698 70.9652L63.0078 71.0325L62.1106 74.6145C61.2575 74.6874 60.3928 74.7244 59.5353 74.7244C58.6794 74.7244 57.8148 74.6874 56.9603 74.6145L56.061 71.0219L55.6012 70.9525C53.5849 70.6536 51.5898 70.1156 49.6715 69.3512L49.2381 69.1789L46.65 71.8532C45.0979 71.123 43.6012 70.2593 42.1889 69.2747L43.2183 65.6773L42.8561 65.3885C41.7348 64.4923 40.6874 63.4993 39.7186 62.4307L40.9484 58.0413C44.5867 63.0132 50.1638 66.4699 56.5674 67.305L56.6904 69.1925L61.2131 67.4439C72.4179 66.6598 81.4153 57.9129 82.5339 46.7965L89.8742 45.0707C89.8658 45.6734 89.8408 46.1824 89.7937 46.7406ZM38.3326 46.5543L3.7735 38.5626L40.5801 38.7736L38.3326 46.5543ZM37.6513 48.9125C37.5194 48.2672 37.4192 47.6092 37.3449 46.9441L38.1643 47.1376L37.6513 48.9125ZM34.1581 61.0083C33.3744 59.8158 32.6711 58.5692 32.0654 57.2813L34.7836 54.6518L34.6148 54.2206C33.8698 52.3217 33.3436 50.3512 33.0517 48.363L32.9889 47.9358L29.275 46.7274C29.2241 46.12 29.2034 45.6004 29.1959 45.0255L36.6214 46.774C36.7423 47.9745 36.9577 49.1463 37.2557 50.2839L34.1581 61.0083ZM52.2491 38.1499H47.5089L43.7695 28.6C47.7265 24.6496 53.1528 22.1749 59.1471 22.0606L52.2491 38.1499ZM53.0065 49.9481L55.1436 45.5525L55.4684 50.5169L53.0065 49.9481ZM47.7691 38.8149L51.9542 38.8387L49.7713 43.9288L47.7691 38.8149ZM43.8122 47.8206L44.3928 45.7507L45.3586 48.1789L43.8122 47.8206ZM40.7603 38.1499H38.0988C39.1181 34.6659 40.9638 31.5327 43.4095 28.9762L40.7603 38.1499ZM43.6421 48.4281L45.6452 48.8997L49.1871 57.8008L52.7076 50.563L55.5146 51.2237L56.5208 66.5982C50.1841 65.7279 44.6878 62.196 41.1937 57.1666L43.6421 48.4281ZM65.3397 50.8373L66.3612 65.7582C65.0082 66.1894 63.5994 66.4927 62.1493 66.6598L61.1924 51.8118L65.3397 50.8373ZM60.6988 44.1587L59.2755 22.058C59.3282 22.0576 60.3155 22.0413 61.315 22.1147C62.2056 22.1819 63.1032 22.3362 63.395 22.3881L64.6144 40.2409L60.6988 44.1587ZM64.6768 41.1609L65.2935 50.1582L61.1476 51.1165L60.759 45.0835L64.6768 41.1609ZM73.7383 38.1499H70.0144L69.1049 24.1885C72.3041 25.7024 75.0865 27.9529 77.2377 30.7208L73.7383 38.1499ZM70.0579 38.8268L73.4285 38.807L71.2746 43.3811C70.9911 43.9916 70.7199 44.6268 70.4746 45.2268L70.0579 38.8268ZM75.0161 48.563L81.8104 46.9657C80.8421 55.5833 74.9515 62.7327 67.0197 65.5367L75.0161 48.563ZM34.6205 34.6004L34.7906 34.1683L32.0654 31.5345C32.795 29.9828 33.6597 28.4874 34.6447 27.0787L38.2825 28.1169L38.5717 27.7538C39.835 26.1639 41.2794 24.7187 42.8645 23.454L43.2267 23.1657L42.1889 19.5411C43.6016 18.5573 45.0979 17.6927 46.65 16.9639L49.2658 19.6663L49.6983 19.4945C51.6025 18.7419 53.5841 18.207 55.5889 17.9085L56.0482 17.8395L56.9603 14.2026C57.8284 14.1292 58.6922 14.0923 59.5353 14.0923C60.3792 14.0923 61.2438 14.1292 62.1106 14.2026L63.0192 17.8321L63.4808 17.8998C65.4909 18.1925 67.4799 18.723 69.3928 19.4765L69.8254 19.647L72.4214 16.9639C73.9748 17.6936 75.472 18.5582 76.8808 19.5411L75.8557 23.1283L76.2188 23.4162C77.3269 24.2962 78.3599 25.2694 79.3164 26.3103L77.5744 30.0066C75.3089 27.1811 72.3933 24.9033 69.0535 23.3943L68.8641 20.4778L64.8087 21.9595C63.1273 21.5683 61.3775 21.3556 59.5766 21.3556C49.006 21.3556 40.1001 28.4496 37.3695 38.1499H33.5111C33.8008 36.9468 34.1647 35.7582 34.6205 34.6004ZM80.5863 36.7371C80.7568 37.2 80.9071 37.6725 81.0478 38.1499H79.9208L80.5863 36.7371ZM84.8416 27.7019C85.6522 28.9257 86.381 30.207 87.0051 31.5345L84.3265 34.1239L84.4992 34.5556C84.9643 35.7283 85.3361 36.9318 85.6315 38.1499H81.7744C81.5537 37.3705 81.2944 36.6088 80.9964 35.8659L84.8416 27.7019ZM86.3458 38.1499C86.035 36.829 85.6394 35.5406 85.1458 34.2998L87.8438 31.6923C87.0953 30.0338 86.2008 28.4593 85.1858 26.9723L92.2755 11.9204L84.8091 14.6496L79.6342 25.6347C78.7067 24.6452 77.7159 23.7169 76.6522 22.8729L77.6852 19.2593C75.9981 18.0417 74.1841 16.9899 72.2636 16.1266L69.6487 18.8303C67.7212 18.0703 65.6917 17.5182 63.5805 17.2114L62.6663 13.5556C61.6368 13.4523 60.5911 13.3978 59.5353 13.3978C58.4803 13.3978 57.4355 13.4523 56.4056 13.5556L55.4865 17.2206C53.3849 17.534 51.3612 18.0883 49.4425 18.8483L46.8074 16.1266C44.8874 16.9899 43.0733 18.0417 41.3845 19.2593L42.4302 22.9112C40.8008 24.2101 39.3238 25.6892 38.0267 27.3208L34.3621 26.2751C33.1427 27.9613 32.09 29.774 31.2276 31.6923L33.9735 34.3455C33.4895 35.5723 33.1019 36.8448 32.7959 38.1499H-0.00012207L28.4983 44.8611C28.5058 45.694 28.5366 46.3723 28.6249 47.247L32.363 48.4628C32.6702 50.5538 33.2175 52.5639 33.9669 54.4747L31.2276 57.1235C31.9792 58.7956 32.883 60.3798 33.9076 61.8773L28.8632 79.3441L35.6768 76.8554L39.4992 63.2127C40.4091 64.1846 41.3801 65.0993 42.4214 65.931L41.3845 69.5578C43.0733 70.7745 44.8874 71.8263 46.8074 72.6901L49.4148 69.9965C51.3436 70.7657 53.3814 71.3266 55.4983 71.6404L56.4056 75.2615C57.4355 75.3652 58.4803 75.4189 59.5353 75.4189C60.5911 75.4189 61.6368 75.3652 62.6663 75.2615L63.57 71.6536C65.6966 71.3446 67.7454 70.7899 69.6856 70.0255L72.2654 72.6901C74.1841 71.8263 75.9981 70.7745 77.6869 69.5578L76.6676 65.9982C78.3265 64.6822 79.8289 63.1811 81.1449 61.5226L84.7085 62.5402C85.9278 60.8554 86.9792 59.0422 87.8438 57.1235L85.1739 54.5424C85.937 52.6052 86.4874 50.5648 86.7955 48.4413L90.4443 47.2615C90.5295 46.4013 90.5638 45.7213 90.5731 44.9059L119.315 38.1499H86.3458Z" fill="#282826"/>
<path fill-rule="evenodd" clip-rule="evenodd" d="M64.8087 21.9596L68.8641 20.4778L69.0535 23.3943C72.3933 24.9033 75.3089 27.1811 77.5744 30.0066L79.3164 26.3104C78.3599 25.2695 77.3269 24.2963 76.2188 23.4163L75.8557 23.1284L76.8808 19.5411C75.472 18.5583 73.9748 17.6937 72.4214 16.964L69.8254 19.6471L69.3928 19.4769C67.4799 18.7231 65.4909 18.1926 63.4808 17.8998L63.0192 17.8321L62.1106 14.2031C61.2438 14.1297 60.3792 14.0928 59.5353 14.0928C58.6922 14.0928 57.8284 14.1297 56.9608 14.2031L56.0482 17.8396L55.5889 17.9086C53.5841 18.2071 51.6025 18.742 49.6983 19.495L49.2658 19.6664L46.65 16.964C45.0979 17.6928 43.6016 18.5574 42.1889 19.5411L43.2267 23.1657L42.8645 23.4541C41.2794 24.7187 39.835 26.164 38.5722 27.7539L38.2825 28.1169L34.6447 27.0787C33.6597 28.4879 32.795 29.9833 32.0654 31.5345L34.7906 34.1684L34.6205 34.6005C34.1647 35.7583 33.8008 36.9468 33.5111 38.1499H37.3695C40.1001 28.4497 49.006 21.3556 59.5766 21.3556C61.3775 21.3556 63.1274 21.5684 64.8087 21.9596ZM61.2131 67.4444L56.6904 69.1926L56.5674 67.3051C50.1638 66.4699 44.5867 63.0132 40.9485 58.0413L39.7186 62.4308C40.6874 63.4994 41.7348 64.4923 42.8561 65.3886L43.2183 65.6774L42.1889 69.2752C43.6012 70.2594 45.0979 71.1231 46.65 71.8532L49.2381 69.1789L49.6715 69.3512C51.5898 70.1156 53.5849 70.6537 55.6012 70.9526L56.061 71.022L56.9608 74.6145C57.8148 74.6875 58.6794 74.7244 59.5353 74.7244C60.3928 74.7244 61.2575 74.6875 62.1106 74.6145L63.0078 71.0326L63.4698 70.9653C65.5023 70.6695 67.5084 70.1376 69.4298 69.3789L69.8614 69.2071L72.4223 71.8532C73.9748 71.1231 75.472 70.2585 76.8825 69.2752L75.872 65.742L76.2359 65.4545C77.8526 64.171 79.3216 62.7033 80.5999 61.0906L80.8891 60.7275L84.4271 61.7376C85.4091 60.3301 86.2737 58.8356 87.0052 57.2813L84.3568 54.7187L84.5256 54.2879C85.2803 52.371 85.8126 50.3697 86.1071 48.342L86.17 47.9134L86.5827 47.7798L89.7937 46.7407C89.8408 46.1824 89.8658 45.6734 89.8742 45.0708L82.5339 46.7965C81.4153 57.913 72.4183 66.6598 61.2131 67.4444ZM85.6315 38.1499C85.3361 36.9323 84.9643 35.7284 84.4992 34.5556L84.3265 34.124L87.0052 31.5345C86.381 30.2066 85.6522 28.9257 84.8416 27.702L80.9964 35.866C81.2944 36.6088 81.5537 37.371 81.7744 38.1499H85.6315ZM36.6214 46.7741C36.7423 47.975 36.9577 49.1464 37.2557 50.284L34.1581 61.0084C33.3744 59.8158 32.6711 58.5693 32.0654 57.2813L34.7836 54.6519L34.6148 54.2211C33.8698 52.3218 33.3436 50.3512 33.0517 48.3631L32.9889 47.9358L29.275 46.7275C29.2241 46.12 29.2034 45.6005 29.1959 45.0255L36.6214 46.7741Z" fill="#9F7C3A"/>
<path fill-rule="evenodd" clip-rule="evenodd" d="M71.2745 43.3812L73.4284 38.8071L70.0578 38.8269L70.4745 45.2269C70.7198 44.6269 70.991 43.9918 71.2745 43.3812ZM51.9541 38.8388L47.769 38.8146L49.7712 43.9289L51.9541 38.8388ZM53.0064 49.9478L55.4684 50.5166L55.1435 45.5522L53.0064 49.9478ZM45.3585 48.179L44.3928 45.7509L43.8121 47.8208L45.3585 48.179ZM60.7589 45.0836L61.1475 51.1166L65.2934 50.1583L64.6767 41.161L60.7589 45.0836ZM3.77344 38.5627L38.3326 46.5544L40.58 38.7737L3.77344 38.5627ZM115.561 38.5627L75.3576 47.837L79.6279 38.7711L115.541 38.5627H115.561Z" fill="#24A0CE"/>
<path fill-rule="evenodd" clip-rule="evenodd" d="M68.2294 21.4495L64.127 22.9484L66.9428 64.0671L90.9261 13.1545L85.3164 15.2038L71.9037 43.6763C70.8768 45.8908 69.9885 48.4772 69.9885 48.4772L68.2294 21.4495ZM44.2777 43.5805L35.1028 76.3246L29.9111 78.2205L43.7248 30.3932L49.7419 45.7629L58.7511 24.7506L61.4487 66.6064L57.323 68.2029L55.6667 42.8868L49.25 56.0794L44.2777 43.5805Z" fill="#FFFFFE"/>
<path fill-rule="evenodd" clip-rule="evenodd" d="M76.1613 4.41307L74.5121 6.68559L74.0167 6.50142C70.8325 5.31724 67.5107 4.53219 64.1442 4.16911L63.596 4.10933L63.2022 0.906692C63.2022 0.906692 60.7899 0.694824 59.6075 0.694824C58.4228 0.694824 56.0079 0.906692 56.0079 0.906692L55.6167 4.10933L55.0677 4.16911C51.7002 4.53219 48.378 5.31724 45.1947 6.50142L44.6993 6.68559L43.0501 4.41307C41.1938 5.17131 39.3938 6.04823 37.6826 7.02757L41.5011 17.497C46.8567 13.8983 53.0734 12.0016 59.5398 12.0016C66.0514 12.0016 72.3059 13.923 77.6853 17.5674L81.5297 7.02757C79.8127 6.04603 78.0114 5.16867 76.1613 4.41307Z" fill="#294386"/>
<path fill-rule="evenodd" clip-rule="evenodd" d="M59.6031 0C58.3969 0 57.1828 0.069011 55.993 0.208791L55.3798 0.278681L54.9886 3.4778C51.4989 3.85451 48.1657 4.65275 44.9481 5.85011L43.2914 3.56571C41.0505 4.45011 38.898 5.49582 36.8259 6.71912L41.1525 18.5811C46.3433 14.8818 52.6879 12.6963 59.5354 12.6963C66.4308 12.6963 72.8123 14.9103 78.025 18.6549L82.378 6.71912C80.3029 5.49582 78.1547 4.45011 75.913 3.56571L74.2554 5.85011C71.0378 4.65275 67.705 3.85451 64.2154 3.4778L63.8229 0.278681L63.2114 0.208791C62.0215 0.069011 60.8057 0 59.6031 0ZM59.6031 0.694945C60.7855 0.694945 63.1978 0.906813 63.1978 0.906813L63.5916 4.10945L64.1398 4.16923C67.5064 4.53275 70.8281 5.31736 74.0123 6.50154L74.5077 6.68571L76.1578 4.41319C78.007 5.16879 79.8083 6.04615 81.5253 7.02769L77.6809 17.5675C72.3015 13.9231 66.047 12.0018 59.5354 12.0018C53.069 12.0018 46.8527 13.8985 41.4976 17.4971L37.6791 7.02769C39.3894 6.04835 41.1894 5.17143 43.0466 4.41319L44.6949 6.68571L45.1903 6.50154C48.3736 5.31736 51.6963 4.53275 55.0633 4.16923L55.6127 4.10945L56.004 0.906813C56.004 0.906813 58.4185 0.694945 59.6031 0.694945Z" fill="#9F7C3A"/>
<path fill-rule="evenodd" clip-rule="evenodd" d="M72.9659 11.2462L74.245 11.7811L74.5663 9.22947L72.9659 11.2462ZM75.2788 14.6655L73.9738 14.1213L74.118 12.9306L72.2533 12.1521L71.5056 13.0914L70.2006 12.5468L74.1826 7.79914L75.8555 8.49716L75.2788 14.6655ZM69.6991 7.52705L68.5245 12.1108L67.2085 11.7736L68.383 7.19035L66.8103 6.78815L67.103 5.64441L71.5641 6.78551L71.2705 7.92881L69.6991 7.52705ZM62.9017 11.1543C62.2072 11.0831 61.4916 10.858 61.0002 10.5758L61.3325 9.57365C61.8652 9.7987 62.4133 9.97057 63.0353 10.0347C63.7294 10.1064 63.8784 9.98771 63.9303 9.49365C63.9848 8.96354 63.9641 8.89804 63.0037 8.58551C61.583 8.12705 61.3958 7.822 61.5272 6.55035C61.6489 5.37628 62.121 4.95167 63.772 5.1209C64.2947 5.17452 64.9206 5.29321 65.5742 5.50288L65.3232 6.60178C64.6494 6.41628 64.2138 6.31782 63.6722 6.26244C63.067 6.20046 62.9219 6.29189 62.8766 6.72441C62.8182 7.29013 62.8437 7.302 63.7681 7.6198C65.3527 8.16705 65.4019 8.48398 65.2823 9.64178C65.161 10.8066 64.714 11.3407 62.9017 11.1543ZM59.6533 4.9209L59.8797 9.10683C59.9285 10.0027 59.4072 10.9464 57.7056 11.0378C56.0045 11.1297 55.3848 10.2471 55.3373 9.35079L55.1105 5.16529L56.4683 5.09189L56.6876 9.15343C56.7131 9.63299 56.9632 9.8954 57.6423 9.85892C58.3215 9.82288 58.5421 9.53409 58.5153 9.0554L58.2955 4.99343L59.6533 4.9209ZM51.961 11.8479C50.5303 12.1802 49.6393 11.6303 49.3966 10.5833L48.838 8.17804C48.5918 7.11431 49.1531 6.24529 50.5834 5.91299C51.2639 5.75474 51.9817 5.67958 52.5074 5.6576L52.6107 6.82815C52.0806 6.86903 51.281 6.99079 50.8564 7.09013C50.194 7.24354 50.1043 7.6198 50.2094 8.06947L50.6692 10.051C50.7733 10.5011 51.0274 10.8339 51.6903 10.68C51.9549 10.6185 52.1294 10.5688 52.4634 10.4457L52.0542 8.68002L53.2999 8.39167L53.9281 11.0994C53.3254 11.4308 52.6415 11.6901 51.961 11.8479ZM44.9004 11.7429L46.1773 11.2009L44.5729 9.18991L44.9004 11.7429ZM48.9667 12.4783L47.6643 13.0303L46.9127 12.0958L45.0511 12.8853L45.2023 14.0752L43.9008 14.6268L43.2802 8.46551L44.9483 7.75738L48.9667 12.4783Z" fill="#FFFFFE"/>
</svg>
