<svg width="301" height="64" viewBox="0 0 301 64" fill="none" xmlns="http://www.w3.org/2000/svg">
<path fill-rule="evenodd" clip-rule="evenodd" d="M19.3143 3.43189H41.5309L44.7844 34.629H45.3358C46.1415 32.0292 46.9711 29.2724 48.0807 26.7512L58.4695 3.43189H80.4488L80.809 62.8338H59.9324L62.1719 30.2966H61.7776C61.0709 32.2648 60.354 34.3149 59.4237 36.2046L46.6195 62.8338H34.015L30.2749 37.7016C30.0428 35.177 29.867 32.8179 30.1077 30.2966H29.3993C28.8667 32.6574 28.3221 35.1018 27.711 37.466L21.1732 62.8338H0.294922L19.3143 3.43189V3.43189ZM149.562 24.4348L129.827 3.0683C125.933 1.69075 121.48 0.654602 117.11 0.654602C98.7188 0.654602 83.6221 13.0218 83.6221 32.0549C83.6221 51.4856 98.6386 63.1308 117.11 63.1308C135.58 63.1308 150.596 51.4856 150.596 32.0549C150.596 29.4568 150.139 26.8229 149.562 24.4348ZM117.289 42.995C114.411 42.995 111.651 41.8517 109.616 39.8167C107.581 37.7817 106.438 35.0216 106.438 32.1436C106.438 29.2656 107.581 26.5055 109.616 24.4705C111.651 22.4355 114.411 21.2922 117.289 21.2922C120.167 21.2922 122.927 22.4355 124.962 24.4705C126.997 26.5055 128.141 29.2656 128.141 32.1436C128.141 35.0216 126.997 37.7817 124.962 39.8167C122.927 41.8517 120.167 42.995 117.289 42.995ZM266.976 3.04611H288.563L282.175 43.3842H300.295L294.573 62.448H257.569L266.976 3.04611ZM260.592 3.04611L255.03 38.183C252.284 55.5158 240.164 63.3919 223.541 63.3919C206.919 63.3919 197.293 55.5176 200.039 38.183L205.604 3.04611H227.189L221.952 36.1363C221.215 40.7844 220.725 44.8812 226.472 44.8812C232.223 44.8812 233.031 40.7844 233.766 36.1363L239.007 3.04611H260.592V3.04611ZM136.737 3.43189H200.791L197.733 22.7346L185.924 22.1816L179.487 62.8338H157.902L164.339 22.1816L153.513 22.7346L136.737 3.43189Z" fill="white"/>
</svg>
